<?xml version="1.0" encoding="utf-8"?>
<!-- Generator: Adobe Illustrator 24.1.1, SVG Export Plug-In . SVG Version: 6.00 Build 0)  -->
<svg version="1.1" id="Layer_1" xmlns="http://www.w3.org/2000/svg" xmlns:xlink="http://www.w3.org/1999/xlink" x="0px" y="0px"
	 viewBox="0 0 512 512" style="enable-background:new 0 0 512 512;" xml:space="preserve">
<g>
	<path d="M461.2,128.6l13.3,38.1c0.6,2,0.8,4.2,0.3,6.2l-0.6,2.1l-1.5,5.8l-5.5,20.9l-16.6,63.4c-13.1,49.8-21.6,82.7-23.8,90.8
		c-11.2,44.5-20.2,60-48.9,80.3c-25.3,17.8-78,53.7-88.1,60l-3.5,2.2l-4,2.8c-3.8,2.8-7.9,5.2-12.2,7.2c-4.8,2.2-9.4,3.5-14.1,3.5
		c-4.7,0-9.3-1.3-14.1-3.5c-4.2-2.1-8.3-4.5-12.2-7.2l-4-2.8l-3.5-2.2c-10.1-6.3-62.7-42.2-88.1-60c-28.8-20.3-37.7-35.8-48.9-80.3
		c-2.1-8.2-10.7-41-23.7-90.5l-16.8-63.7l-5.4-20.9l-1.6-5.8l-0.5-2.1c-0.6-2-0.5-4.2,0.3-6.2l13.2-38.1l-10-24.6
		c-1.5-3.8-0.6-8.2,2.1-11.1l2.6-2.8c2.1-2.3,4.4-4.7,7.1-7.4c7.3-7.7,15.1-15.7,22.9-23.6c7.5-7.5,17.6-11.6,29.3-12.9
		c9.9-1.1,19.8-0.6,29.6,1.4l38.7-44c2-2.3,4.9-3.6,7.9-3.6h150.1c3.1,0,5.9,1.3,7.9,3.6l38.7,44c9.7-2,19.7-2.5,29.6-1.4
		c11.8,1.3,21.8,5.4,29.3,12.9c10.8,10.8,21.4,21.9,31.9,33c3.4,3.8,4.2,8.1,2.7,11.9L461.2,128.6L461.2,128.6z M440,131.7
		c-0.8-2.4-0.8-5.1,0.3-7.4l8.9-22l-4.9-5.1c-7.5-7.9-15-15.6-22.7-23.3c-3.8-3.7-9.4-6-16.9-6.9c-7.3-0.7-14.8-0.3-22,1
		c-1.7,0.3-3.3,0.7-4.6,0.9l-1.5,0.4c-3.9,1.1-8.1-0.2-10.8-3.2l-39.6-45.1H185.7l-39.6,45.1c-2.7,3.1-6.8,4.3-10.8,3.2
		c-2-0.5-4-1-6.1-1.3c-7.3-1.3-14.7-1.7-22-1C99.8,68,94.1,70.3,90.3,74c-9.2,9.3-18.4,18.8-27.4,28.3l8.9,22c0.9,2.4,1,5,0.2,7.4
		l-13.5,38.8l1.3,4.8l5.5,20.8l16.7,63.5c8,30.3,15.9,60.7,23.7,91c10.1,40.1,16.5,51.3,40.7,68.4c25,17.6,77.4,53.2,87.1,59.3
		c1.3,0.8,2.5,1.6,4.2,2.7l3.9,2.8c4.1,2.8,6.8,4.4,9.3,5.6c2.2,1.1,4,1.5,5.2,1.5c1.3,0,2.9-0.4,5.2-1.5c2.6-1.1,5.2-2.8,9.3-5.6
		l4-2.8c1.6-1.1,2.9-1.9,4.1-2.7c9.7-6.1,62.2-41.7,87.1-59.3c24.1-17.1,30.6-28.3,40.8-68.4c2.1-8.2,10.7-41.1,23.7-90.7l16.8-63.8
		l5.5-20.8l1.3-4.8l-13.5-38.8L440,131.7z M361.8,90.1c0,0,55,66.8,55,81c0,14.3-6.9,18-13.8,25.4l-41.3,44
		c-3.9,4.2-12,10.4-7.2,21.8c4.8,11.3,11.8,25.8,4,40.4c-7.8,14.7-21.3,24.5-29.9,22.8c-8.6-1.6-28.7-12.2-36.2-17
		c-7.4-4.9-30.9-24.4-30.9-31.8c0-7.5,24.3-20.9,28.8-23.9c4.5-3,25-14.8,25.4-19.4c0.4-4.6,0.3-6-5.8-17.4
		c-6-11.4-16.9-26.7-15.1-36.8c1.7-10.2,19.3-15.4,31.9-20.2c12.5-4.8,36.7-13.7,39.8-15.2c3-1.4,2.2-2.8-6.9-3.6
		c-9.2-0.9-35.1-4.3-46.9-1.1c-11.7,3.3-31.7,8.3-33.2,10.9c-1.6,2.7-3.1,2.8-1.4,11.8s10.3,52.8,11.1,60.6
		c0.8,7.7,2.4,12.8-5.9,14.7c-8.3,2-22.3,5.3-27.1,5.3c-4.8,0-18.8-3.3-27.1-5.3c-8.3-1.9-6.8-7-5.9-14.7
		c0.8-7.8,9.4-51.5,11.1-60.6s0.2-9.2-1.4-11.8c-1.7-2.7-21.6-7.6-33.2-10.9c-11.8-3.3-37.7,0.3-46.8,1.1c-9.1,0.8-9.9,2.2-6.9,3.6
		c3.1,1.4,27.3,10.4,39.8,15.2c12.6,4.8,30.2,10,31.9,20.2c1.8,10.1-9.1,25.3-15.1,36.8c-6.1,11.4-6.3,12.8-5.8,17.4
		c0.4,4.7,20.9,16.4,25.4,19.4c4.5,3.1,28.8,16.4,28.8,23.9c0,7.5-23.5,26.9-30.9,31.8c-7.5,4.8-27.7,15.4-36.2,17
		c-8.6,1.7-22.1-8.2-29.9-22.8c-7.8-14.6-0.8-29.1,4-40.4c4.8-11.3-3.3-17.6-7.3-21.8l-41.3-44c-6.9-7.4-13.8-11.2-13.8-25.4
		c0-14.3,55-81,55-81s46.4,8.9,52.7,8.9c6.3,0,19.8-5.3,32.3-9.4c12.5-4.2,20.9-4.2,20.9-4.2s8.3,0.1,20.9,4.2
		c12.6,4.2,26.1,9.4,32.3,9.4C315.4,99,361.8,90.1,361.8,90.1z M320.6,345.3c3.4,2.2,1.3,6.2-1.7,8.3c-3.1,2.3-44.7,34.6-48.8,38.2
		c-4,3.6-9.9,9.5-14,9.5s-10-5.9-14-9.5c-4.1-3.6-45.8-35.9-48.8-38.2c-3.1-2.2-5.2-6.2-1.8-8.3c3.4-2.1,14-7.5,28.7-15.2
		c14.7-7.7,33-14.1,35.8-14.1c2.8,0,21.2,6.4,35.8,14.1C306.6,337.8,317.2,343.2,320.6,345.3z"/>
</g>
</svg>
