<?xml version="1.0" encoding="utf-8"?>
<!-- Generator: Adobe Illustrator 24.1.1, SVG Export Plug-In . SVG Version: 6.00 Build 0)  -->
<svg version="1.1" id="Layer_1" xmlns="http://www.w3.org/2000/svg" xmlns:xlink="http://www.w3.org/1999/xlink" x="0px" y="0px"
	 viewBox="0 0 512 512" style="enable-background:new 0 0 512 512;" xml:space="preserve">
<g>
	<path d="M256,0c141.4,0,256,114.6,256,256S397.4,512,256,512S0,397.4,0,256S114.6,0,256,0z M205.1,341.3
		c3.8,13.8,3.3,26.7-0.5,38.3l-1.3,3.8l-1.7,3.8c-3,6.3-7,12-11.8,17.3c-14.9,16.2-35.7,22.3-44.6,17.2c-9.7-5.6-4.8-28.5,12.4-46.8
		c18.6-19.6,45.2-32.2,45.2-32.2v-0.1L205.1,341.3z M416.6,109.6c-11.6-45.5-87-60.4-158.3-35.1c-42.5,15.1-88.4,38.8-121.5,69.7
		c-39.3,36.7-45.6,68.7-43,82.1c9.2,47.2,73.8,78.1,100.3,100.9v0.2c-7.9,3.8-65.2,32.6-78.6,62.4c-14.4,31.3,2.3,53.8,13.1,56.6
		c33.6,9.3,68.2-7.7,86.8-35.2c17.9-26.9,16.3-61.4,8.6-78.4c10.6-2.8,23.1-4.2,39.1-2.3c44.9,5.2,53.8,33.4,51.8,44.9
		c-1.9,11.5-11.2,18.2-14.4,20.2c-3.1,1.9-4.2,2.5-3.8,3.8c0.3,1.9,1.9,1.9,4.5,1.6c3.5-0.6,23.3-9.6,24.3-31.3
		c0.9-27.6-25.3-58.2-72-57.7c-19.2,0.4-31.4,2-40,5.5l-2.3-2.3c-28.8-31-82.2-52.7-80-94.1c0.7-15,6.1-54.7,102.4-102.7
		c79-39.4,142.1-28.5,152.9-4.5c15.7,34.2-33.6,97.9-115.8,107.1c-31.3,3.5-47.7-8.6-51.8-13.1c-4.5-4.8-5.1-5.2-6.8-4.2
		c-2.5,1.2-0.9,5.4,0,8c2.6,6.4,12.5,17.6,29.8,23.3c15,4.8,51.8,7.7,96-9.6c49.6-19.2,88.3-72.6,77.1-117.4L416.6,109.6z"/>
</g>
</svg>
